<svg xmlns="http://www.w3.org/2000/svg" version="1.1" xmlns:xlink="http://www.w3.org/1999/xlink" xmlns:svgjs="http://svgjs.dev/svgjs" width="1440" height="700" preserveAspectRatio="none" viewBox="0 0 1440 700"><g mask="url(&quot;#SvgjsMask1014&quot;)" fill="none"><rect width="1440" height="700" x="0" y="0" fill="rgba(231, 239, 255, 1)"></rect><path d="M0 422.31L10 490.87L20 408.44L30 462.65L40 517.38L50 502.18L60 431.88L70 434.07L80 367.03L90 452.1L100 376.02L110 375.67L120 395.93L130 458.59L140 517.55L150 561.97L160 560.77L170 646.66L180 567.65L190 562.81L200 482.73L210 436.83L220 388.45L230 375.89L240 312.8L250 383.51L260 410.88L270 400.77L280 400.49L290 352.98L300 427.65L310 474.19L320 488.34L330 556.3L340 557.68L350 556.75L360 625.75L370 582.39L380 559.6L390 553.92L400 531.03L410 560.75L420 607.28L430 688.31L440 650.4L450 673.08L460 672.39L470 686.1L480 607.36L490 559.19L500 575.77L510 631.57L520 547.1L530 524L540 463.21L550 388.78L560 448.61L570 365.52L580 380.65L590 348.73L600 292.49L610 280.34L620 244.6L630 254.11L640 274.08L650 352.01L660 353.47L670 279.9L680 299.95L690 356.32L700 405.27L710 404.82L720 354.56L730 388.64L740 367.02L750 328.52L760 368.49L770 378.3L780 416.06L790 369.01L800 391.09L810 309.89L820 234.53L830 285.96L840 206.21L850 126.13L860 197.34L870 174.39L880 255.65L890 300.2L900 310.33L910 247.59L920 272.27L930 264.26L940 211.7L950 193.17L960 225.2L970 172.1L980 181.01L990 103.45L1000 185.51L1010 150.7L1020 197.66L1030 187.49L1040 103.12L1050 136.68L1060 213.69L1070 181.42L1080 184.7L1090 214.05L1100 257.75L1110 189.4L1120 172.52L1130 216.52L1140 299.06L1150 353.35L1160 296.01L1170 373.86L1180 314.95L1190 273.88L1200 238.26L1210 164.03L1220 245.12L1230 182.47L1240 199.9L1250 197.8L1260 263.42L1270 331.93L1280 287.93L1290 318.8L1300 251.88L1310 241.35L1320 279.74L1330 344.74L1340 385.85L1350 322.87L1360 368.19L1370 419.19L1380 399.54L1390 446.04L1400 373.09L1410 456.84L1420 433.1L1430 381.62L1440 314" stroke="rgba(163, 178, 233, 1)" stroke-width="2"></path><path d="M0 422.31L10 490.87L20 408.44L30 462.65L40 517.38L50 502.18L60 431.88L70 434.07L80 367.03L90 452.1L100 376.02L110 375.67L120 395.93L130 458.59L140 517.55L150 561.97L160 560.77L170 646.66L180 567.65L190 562.81L200 482.73L210 436.83L220 388.45L230 375.89L240 312.8L250 383.51L260 410.88L270 400.77L280 400.49L290 352.98L300 427.65L310 474.19L320 488.34L330 556.3L340 557.68L350 556.75L360 625.75L370 582.39L380 559.6L390 553.92L400 531.03L410 560.75L420 607.28L430 688.31L440 650.4L450 673.08L460 672.39L470 686.1L480 607.36L490 559.19L500 575.77L510 631.57L520 547.1L530 524L540 463.21L550 388.78L560 448.61L570 365.52L580 380.65L590 348.73L600 292.49L610 280.34L620 244.6L630 254.11L640 274.08L650 352.01L660 353.47L670 279.9L680 299.95L690 356.32L700 405.27L710 404.82L720 354.56L730 388.64L740 367.02L750 328.52L760 368.49L770 378.3L780 416.06L790 369.01L800 391.09L810 309.89L820 234.53L830 285.96L840 206.21L850 126.13L860 197.34L870 174.39L880 255.65L890 300.2L900 310.33L910 247.59L920 272.27L930 264.26L940 211.7L950 193.17L960 225.2L970 172.1L980 181.01L990 103.45L1000 185.51L1010 150.7L1020 197.66L1030 187.49L1040 103.12L1050 136.68L1060 213.69L1070 181.42L1080 184.7L1090 214.05L1100 257.75L1110 189.4L1120 172.52L1130 216.52L1140 299.06L1150 353.35L1160 296.01L1170 373.86L1180 314.95L1190 273.88L1200 238.26L1210 164.03L1220 245.12L1230 182.47L1240 199.9L1250 197.8L1260 263.42L1270 331.93L1280 287.93L1290 318.8L1300 251.88L1310 241.35L1320 279.74L1330 344.74L1340 385.85L1350 322.87L1360 368.19L1370 419.19L1380 399.54L1390 446.04L1400 373.09L1410 456.84L1420 433.1L1430 381.62L1440 314L1440 700L0 700z" fill="url(&quot;#SvgjsLinearGradient1015&quot;)"></path></g><defs><mask id="SvgjsMask1014"><rect width="1440" height="700" fill="#ffffff"></rect></mask><linearGradient x1="50%" y1="0%" x2="50%" y2="100%" id="SvgjsLinearGradient1015"><stop stop-opacity="0.65" stop-color="rgba(163, 178, 233, 1)" offset="0"></stop><stop stop-opacity="0" stop-color="#ffffff" offset="0.8"></stop></linearGradient></defs></svg>